<?xml version="1.0" encoding="UTF-8"?>
<svg id="Layer_1" xmlns="http://www.w3.org/2000/svg" version="1.1" viewBox="0 0 150 150">
  <!-- Generator: Adobe Illustrator 30.1.0, SVG Export Plug-In . SVG Version: 2.1.1 Build 136)  -->
  <defs>
    <style>
      .st0 {
        fill: #fcfcfc;
      }

      .st1 {
        fill: #6ba3d6;
      }
    </style>
  </defs>
  <path class="st1" d="M84.8,46.28l3.8,10.26c.83,2.25,2.61,4.03,4.86,4.86l10.26,3.8c9.1,3.37,9.1,16.24,0,19.61l-10.26,3.8c-2.25.83-4.03,2.61-4.86,4.86l-3.8,10.26c-3.37,9.1-16.24,9.1-19.61,0l-3.8-10.26c-.83-2.25-2.61-4.03-4.86-4.86l-10.26-3.8c-9.1-3.37-9.1-16.24,0-19.61l10.26-3.8c2.25-.83,4.03-2.61,4.86-4.86l3.8-10.26c3.37-9.1,16.24-9.1,19.61,0Z"/>
  <path class="st0" d="M75,4.86C36.26,4.86,4.86,36.26,4.86,75s31.4,70.14,70.14,70.14,70.14-31.4,70.14-70.14S113.74,4.86,75,4.86ZM75,134.99c-33.13,0-59.99-26.86-59.99-59.99S41.87,15.01,75,15.01s59.99,26.86,59.99,59.99-26.86,59.99-59.99,59.99Z"/>
</svg>